<svg xmlns="http://www.w3.org/2000/svg" viewBox="0 0 1494.04 193.27"><title>spellshape_text_logo</title>
<path d="M102.24,885.13c-77.1,0-89.61-54.89-63.32-78.64C-4,779.68,18,692.88,101,692.88c78.89,0,93.45,53.1,65.62,75.82C206.66,798.32,188.53,885.13,102.24,885.13Zm60-113.36c-7.15,4.59-16.34,7.15-27.32,7.15-40.85,0-40.85-19.92,0-19.92a56.94,56.94,0,0,1,27.32,6.64c26-19.4,13.27-67.66-61.28-67.66-78.89,0-98.8,81.7-57.44,105.19,6.64-4.59,15.06-7.15,25.27-7.15,35.24,0,35.24,18.39.51,18.39-9.95,0-18.38-1.79-25.53-5.11C18.5,829.21,29.48,880,102.24,880,184.19,880,200.53,797.81,162.24,771.77ZM69.3,809.3c27.83,0,27.58-8.17-.51-8.17a42.18,42.18,0,0,0-19.66,4.6A53.92,53.92,0,0,0,69.3,809.3Zm65.62-45.19c-34,0-34,9.7,0,9.7A49.24,49.24,0,0,0,157.13,769,50.85,50.85,0,0,0,134.92,764.11Z" transform="translate(-17.5 -691.86)" style="fill:#0000eb" stroke="#0000eb"  stroke-width="3"/>
<path d="M285.81,824.11a31.32,31.32,0,0,1-10-1.53c.25,26.29-11,55.14-43.15,55.14-85,0-85-181,23.75-181C371.08,696.71,363.93,824.11,285.81,824.11Zm-29.36-122.3c-102.13,0-101.87,170.81-23.75,170.81,29.36,0,38.55-27.83,38-51.83-21.19-10.21-28.08-40.09-13.27-40.09,9.44,0,16.85,16.86,18.12,36.51A32.74,32.74,0,0,0,285.81,819C357.29,819,364.19,701.81,256.45,701.81Zm1,84c-6.64,0-1.79,19.92,13,28.85C269.21,798.83,263.59,785.81,257.47,785.81ZM296,740.37c8.93,12.51,8.42,36.25-2.55,47.23-1.79,1.79-4.34,1.53-5.11.51s-.26-2.81,1.28-4.09c11-9.19,8.93-30.63,2.55-40.34-1-1.53-1.79-3.06-.51-4.34C292.7,738.32,294.74,738.58,296,740.37Z" transform="translate(-17.5 -691.86)" style="fill:#0000eb" stroke="#0000eb"  stroke-width="3"/>
<path d="M487.5,838.92c0,51.57-164.16,71.23-164.16-18.13,0-19.41,10.46-32.43,20.93-38.81a48.68,48.68,0,0,1-19.4-38.55c0-64.08,162.38-61.79,162.38-11a33.16,33.16,0,0,1-13,27.06,32.7,32.7,0,0,1,13,26.81c0,11.75-5.88,19.92-14.3,25.28C481.37,817.72,487.5,826.4,487.5,838.92Zm-5.1,0c0-11.49-6.39-19.15-14.81-24.26-18.9,8.94-44.68,5.62-44.68-5.36,0-8.17,25.78-10.47,44.93-.77,8.17-4.34,14.3-11.49,14.3-22.21s-5.36-18.64-12.51-23.74C452,773.05,427.5,771,427.5,761.81c0-13.27,24.51-15.83,42.13-5.62,7.15-5.1,12.51-12.76,12.51-23.74,0-43.66-152.17-46.21-152.17,11,0,17.36,10.73,29.62,19.66,36,8.68-3.32,16.34-2,16.34,4.34,0,6.64-7.91,6.64-16.85,1.53-9.19,4.85-20.68,16.34-20.68,35.49C328.44,902.74,482.4,884.11,482.4,838.92ZM360.87,783.77c0-1.53-2.3-1.79-5.62-.77C358.57,784.53,360.87,784.79,360.87,783.77ZM428,809.3c0,5.62,17.88,7.66,33.19,2.3C445.89,805.21,428,806,428,809.3Zm4.6-47.49c0,4.09,17.36,4.85,31.66-2.3C450,752.62,432.61,754.15,432.61,761.81Z" transform="translate(-17.5 -691.86)" style="fill:#0000eb" stroke="#0000eb"  stroke-width="3"/>
<path d="M541.88,880.53c-99.57,0-83.48-184.59-8.17-184.59,44.94,0,47.49,55.66,35.23,92.68a113.61,113.61,0,0,1,17.11-1.28C644.26,787.34,625.37,880.53,541.88,880.53Zm44.17-88.08A101,101,0,0,0,567.16,794c-6.13,15.57-14.81,26.81-24,26.81-13,0-12-23.49,20.42-31.15,11.75-33.7,11-88.59-29.87-88.59-68.68,0-84.25,174.37,8.17,174.37C619.24,875.42,636.35,792.45,586.05,792.45Zm-42.89,23.23c6.64,0,13.27-8.17,18.13-20.17C539.33,801.64,538.05,815.68,543.16,815.68Z" transform="translate(-17.5 -691.86)" style="fill:#0000eb" stroke="#0000eb"  stroke-width="3"/>
<path d="M669,880.53c-99.57,0-83.48-184.59-8.17-184.59,44.94,0,47.49,55.66,35.24,92.68a113.36,113.36,0,0,1,17.1-1.28C771.4,787.34,752.51,880.53,669,880.53Zm44.17-88.08A101,101,0,0,0,694.3,794c-6.13,15.57-14.81,26.81-24,26.81-13,0-12-23.49,20.43-31.15,11.74-33.7,11-88.59-29.88-88.59-68.67,0-84.25,174.37,8.17,174.37C746.38,875.42,763.49,792.45,713.19,792.45ZM670.3,815.68c6.64,0,13.28-8.17,18.13-20.17C666.47,801.64,665.19,815.68,670.3,815.68Z" transform="translate(-17.5 -691.86)" style="fill:#0000eb" stroke="#0000eb"  stroke-width="3"/>
<path d="M811.23,885.13c-77.1,0-89.61-54.89-63.32-78.64C705,779.68,727,692.88,810,692.88c78.89,0,93.45,53.1,65.62,75.82C915.65,798.32,897.52,885.13,811.23,885.13Zm60-113.36c-7.15,4.59-16.34,7.15-27.32,7.15-40.85,0-40.85-19.92,0-19.92a56.94,56.94,0,0,1,27.32,6.64C897.27,746.24,884.5,698,810,698c-78.89,0-98.8,81.7-57.44,105.19,6.64-4.59,15.06-7.15,25.27-7.15,35.24,0,35.24,18.39.51,18.39-9.95,0-18.38-1.79-25.53-5.11C727.49,829.21,738.47,880,811.23,880,893.18,880,909.52,797.81,871.23,771.77ZM778.29,809.3c27.83,0,27.58-8.17-.51-8.17a42.14,42.14,0,0,0-19.65,4.6A53.83,53.83,0,0,0,778.29,809.3Zm65.62-45.19c-34,0-34,9.7,0,9.7A49.24,49.24,0,0,0,866.12,769,50.85,50.85,0,0,0,843.91,764.11Z" transform="translate(-17.5 -691.86)" style="fill:#0000eb" stroke="#0000eb"  stroke-width="3"/>
<path d="M1005.52,874.91c-16.6,0-28.08-6.63-35.49-15.57-7.4,9.7-20.17,17.11-39.57,17.11-64.85,0-68.68-178.21,1.79-178.21,13.27,0,22.72,4.08,29.36,10.21,7.66-9.7,19.4-16.59,36.25-16.59C1079.81,691.86,1076,874.91,1005.52,874.91ZM997.86,697c-15.57,0-26,6.64-32.68,15.32,14.55,18.64,8.43,49-2.3,49-13,0-17.1-28.08-4.34-48.51-5.87-5.61-14.29-9.44-26.29-9.44-63.58,0-59.75,168-1.79,168,18.38,0,29.61-7.4,36.25-16.6-12.25-19.91-8.17-47,2.81-47,9.7,0,15.32,26.8,3.83,47,6.38,8.43,16.6,15.07,32.17,15.07C1069.09,869.81,1072.92,697,997.86,697Zm-35,59.23c5.87,0,10-23.48-.76-39.06C952.42,734.24,954.71,756.19,962.88,756.19Zm6.64,56.68c-5.87,0-8.42,20.17.51,36.51C978.2,832.79,974.63,812.87,969.52,812.87Z" transform="translate(-17.5 -691.86)" style="fill:#0000eb" stroke="#0000eb"  stroke-width="3"/>
<path d="M1170.7,875.42c-17.36,0-29.36-6.63-37.27-15.57-8.43,10.21-22.21,17.87-43.4,17.87-77.36,0-53.87-179.23,38.55-179.23C1224.06,698.49,1246.79,875.42,1170.7,875.42ZM1128.58,703.6c-86,0-108.51,169-38.55,169,19.91,0,32.68-7.41,40.08-17.11-13.28-19.4-9.45-46.21,3.06-46.21,11.49,0,16.34,26,3.58,46.21,6.89,8.43,17.61,14.81,34,14.81C1239.38,870.32,1217.68,703.6,1128.58,703.6Zm4.34,34.72c8.93,12.51,8.42,36.26-2.55,47.24-1.79,1.78-4.35,1.53-5.11.51s-.26-2.81,1.28-4.09c11-9.19,8.93-30.64,2.55-40.34-1-1.53-1.79-3.06-.51-4.34C1129.6,736.28,1131.64,736.54,1132.92,738.32Zm.25,76.09c-7.15,0-9.44,20.16.26,36.25C1142.88,834.06,1139.56,814.41,1133.17,814.41Z" transform="translate(-17.5 -691.86)" style="fill:#0000eb" stroke="#0000eb" stroke-width="3"/>
<path d="M1309.85,824.11a31.41,31.41,0,0,1-10-1.53c.26,26.29-11,55.14-43.14,55.14-85,0-85-181,23.74-181C1395.13,696.71,1388,824.11,1309.85,824.11Zm-29.36-122.3c-102.12,0-101.87,170.81-23.74,170.81,29.36,0,38.55-27.83,38-51.83-21.19-10.21-28.09-40.09-13.28-40.09,9.45,0,16.85,16.86,18.13,36.51a32.67,32.67,0,0,0,10.21,1.79C1381.34,819,1388.23,701.81,1280.49,701.81Zm1,84c-6.64,0-1.79,19.92,13,28.85C1293.26,798.83,1287.64,785.81,1281.51,785.81Zm38.55-45.44c8.94,12.51,8.43,36.25-2.55,47.23-1.79,1.79-4.34,1.53-5.11.51s-.25-2.81,1.28-4.09c11-9.19,8.94-30.63,2.55-40.34-1-1.53-1.78-3.06-.51-4.34C1316.74,738.32,1318.79,738.58,1320.06,740.37Z" transform="translate(-17.5 -691.86)" style="fill:#0000eb" stroke="#0000eb" stroke-width="3"/>
<path d="M1511.55,838.92c0,51.57-164.17,71.23-164.17-18.13,0-19.41,10.47-32.43,20.94-38.81a48.69,48.69,0,0,1-19.41-38.55c0-64.08,162.38-61.79,162.38-11a33.13,33.13,0,0,1-13,27.06,32.67,32.67,0,0,1,13,26.81c0,11.75-5.87,19.92-14.3,25.28C1505.42,817.72,1511.55,826.4,1511.55,838.92Zm-5.11,0c0-11.49-6.38-19.15-14.81-24.26-18.89,8.94-44.68,5.62-44.68-5.36,0-8.17,25.79-10.47,44.94-.77,8.17-4.34,14.29-11.49,14.29-22.21s-5.36-18.64-12.51-23.74c-17.61,10.47-42.12,8.42-42.12-.77,0-13.27,24.51-15.83,42.12-5.62,7.15-5.1,12.51-12.76,12.51-23.74,0-43.66-152.16-46.21-152.16,11,0,17.36,10.72,29.62,19.66,36,8.68-3.32,16.34-2,16.34,4.34,0,6.64-7.92,6.64-16.85,1.53-9.19,4.85-20.68,16.34-20.68,35.49C1352.49,902.74,1506.44,884.11,1506.44,838.92Zm-121.53-55.15c0-1.53-2.3-1.79-5.61-.77C1382.61,784.53,1384.91,784.79,1384.91,783.77Zm67.15,25.53c0,5.62,17.87,7.66,33.19,2.3C1469.93,805.21,1452.06,806,1452.06,809.3Zm4.59-47.49c0,4.09,17.37,4.85,31.66-2.3C1474,752.62,1456.65,754.15,1456.65,761.81Z" transform="translate(-17.5 -691.86)" style="fill:#0000eb" stroke="#0000eb" stroke-width="3"/></svg>