<svg xmlns="http://www.w3.org/2000/svg" viewBox="0 0 1388.74 1492.41"><title>spellshape_logo</title><path d="M1028.24,156.31c23.79.81,48.91,1.29,65-8.86,19-12,25.36-38.75,19.34-59.27C1097.72,37.62,1007.47,25.05,925.94,21,742.19,11.79,602.76,45.8,476.88,118.68,348,193.33,233.25,308.77,160.86,443.54,83.47,587.63,54.44,753.83,80.9,910.65,98,1011.82,138.13,1109.1,196.25,1194c64.22,93.77,150.36,172.39,250.48,227,137.87,75.16,302.24,104.73,457.92,83.65,91.2-12.34,179.42-42.07,257.37-90.13,101-62.25,184.75-155.27,236.38-262.54,45.95-95.49,66.43-202.27,59.73-308.75C1451.69,741,1420.2,639,1360.82,557.4c-60.29-82.88-149.34-144.8-246.9-181.7-87.22-33-181.25-46-272.06-33.18-86.17,12.16-169.45,47.55-240,100.11-60.15,44.81-111,102.1-142.63,169.71-39.69,85-48.83,186.27-22.17,277.78,31.17,107,111.29,200.66,212.35,247.16,85.4,39.3,185.75,44.93,275.05,13,74.08-26.49,140.55-78.84,171.68-150.72,30.7-70.9,27-160.8-12.4-225C1056.44,730,1012,697.87,961,678c-49.19-19.13-104.51-26.77-150.58-2.64-33.36,17.47-61.88,51.61-61,90.41.63,28.7,17.33,60,40.87,69.56,18.81,7.68,42,1.56,64.43-1.36,15.14-2,30-2.49,43.39,2.54C926.05,847,948,881.46,947.83,912.11c-.18,35.48-30,65.86-63.25,83.46-50.16,26.5-108.33,24-157.69,1.82-64.39-29-113.78-91.65-129.3-160-15.16-66.8,2-139.09,39.61-197,46.62-71.78,124.69-121.5,207.65-137.45,95.43-18.34,197.33,8,279.79,61.34,60.93,39.41,111.24,93.56,140.72,158.1,40.9,89.5,41.75,199,8.16,293.41-37.71,106-118.84,193.08-216.86,248.1-101,56.72-220,79.4-333.52,64.39-107.21-14.17-209.54-62-291.74-133.56C343.78,1118.34,279,1014.94,254.28,902.08c-22.52-102.78-11.87-213.41,25-310.44C325.86,469.16,414.2,368.34,521,289.27c89-65.91,190.81-116.7,288.67-131.94C878.45,146.61,945.3,153.47,1028.24,156.31Z" transform="translate(-70.98 -19.15)" style="stroke:#0000eb;stroke-linecap:round;stroke-linejoin:round;stroke-width:0.7086614175px;fill:#0000eb;" /></svg>